HIERARCHY
ROOT joint_Root
{
	OFFSET 0.0 0.0 0.0
	CHANNELS 6 Xposition Yposition Zposition Zrotation Xrotation Yrotation 
	JOINT Hips
	{
		OFFSET 4.5925 91.4895 -427.239
		CHANNELS 6 Xposition Yposition Zposition Zrotation Xrotation Yrotation 
		JOINT Spine
		{
			OFFSET 15.7357 0.0 0.0
			CHANNELS 6 Xposition Yposition Zposition Zrotation Xrotation Yrotation 
			JOINT Chest
			{
				OFFSET 8.98455 -0.406207 0.0
				CHANNELS 6 Xposition Yposition Zposition Zrotation Xrotation Yrotation 
				JOINT Neck
				{
					OFFSET 16.3773 0.0 0.0
					CHANNELS 6 Xposition Yposition Zposition Zrotation Xrotation Yrotation 
					JOINT Head
					{
						OFFSET 6.45672 0.0 0.0
						CHANNELS 6 Xposition Yposition Zposition Zrotation Xrotation Yrotation 
						End Site
						{
							OFFSET 0.0 0.0 0.0
						}
					}
				}
				JOINT Shoulder_L
				{
					OFFSET 12.9942 -0.242716 4.98039
					CHANNELS 6 Xposition Yposition Zposition Zrotation Xrotation Yrotation 
					JOINT UpperArm_L
					{
						OFFSET 5.34809 0.0 0.0
						CHANNELS 6 Xposition Yposition Zposition Zrotation Xrotation Yrotation 
						JOINT LowerArm_L
						{
							OFFSET 24.3286 1.87007e-05 0.0
							CHANNELS 6 Xposition Yposition Zposition Zrotation Xrotation Yrotation 
							JOINT Hand_L
							{
								OFFSET 22.2916 0.0 0.0
								CHANNELS 6 Xposition Yposition Zposition Zrotation Xrotation Yrotation 
								End Site
								{
									OFFSET 0.0 0.0 0.0
								}
							}
						}
					}
				}
				JOINT Shoulder_R
				{
					OFFSET 12.9945 -0.242716 -4.98039
					CHANNELS 6 Xposition Yposition Zposition Zrotation Xrotation Yrotation 
					JOINT UpperArm_R
					{
						OFFSET -5.34813 0.0 0.0
						CHANNELS 6 Xposition Yposition Zposition Zrotation Xrotation Yrotation 
						JOINT LowerArm_R
						{
							OFFSET -24.3289 0.000322201 0.0
							CHANNELS 6 Xposition Yposition Zposition Zrotation Xrotation Yrotation 
							JOINT Hand_R
							{
								OFFSET -22.2915 -0.000108084 0.0
								CHANNELS 6 Xposition Yposition Zposition Zrotation Xrotation Yrotation 
								End Site
								{
									OFFSET 0.0 0.0 0.0
								}
							}
						}
					}
				}
			}
		}
		JOINT UpperLeg_L
		{
			OFFSET -2.19248 -6.46944 0.0
			CHANNELS 6 Xposition Yposition Zposition Zrotation Xrotation Yrotation 
			JOINT LowerLeg_L
			{
				OFFSET 39.0811 0.0 -1.23785e-05
				CHANNELS 6 Xposition Yposition Zposition Zrotation Xrotation Yrotation 
				JOINT Foot_L
				{
					OFFSET 40.9854 0.0 -1.26872e-05
					CHANNELS 6 Xposition Yposition Zposition Zrotation Xrotation Yrotation 
					JOINT Toes_L
					{
						OFFSET 11.7543 0.0 0.0
						CHANNELS 6 Xposition Yposition Zposition Zrotation Xrotation Yrotation 
						End Site
						{
							OFFSET 0.0 0.0 0.0
						}
					}
				}
			}
		}
		JOINT UpperLeg_R
		{
			OFFSET -2.19251 6.46944 0.0
			CHANNELS 6 Xposition Yposition Zposition Zrotation Xrotation Yrotation 
			JOINT LowerLeg_R
			{
				OFFSET -39.0811 -0.00228153 -0.0401928
				CHANNELS 6 Xposition Yposition Zposition Zrotation Xrotation Yrotation 
				JOINT Foot_R
				{
					OFFSET -40.9854 0.0 0.0
					CHANNELS 6 Xposition Yposition Zposition Zrotation Xrotation Yrotation 
					JOINT Toes_R
					{
						OFFSET -11.7543 0.0 0.0
						CHANNELS 6 Xposition Yposition Zposition Zrotation Xrotation Yrotation 
						End Site
						{
							OFFSET 0.0 0.0 0.0
						}
					}
				}
			}
		}
	}
}
MOTION
Frames:	8
Frame Time:	0.0333333
0.000000 0.000000 0.000000 0.000000 0.000000 -0.000000 9.468500 84.968700 397.259000 -86.410000 -11.147900 162.241000 15.735700 0.000005 -0.000001 57.254500 82.811200 -54.146000 8.984550 -0.406207 -0.000000 4.582600 -7.850010 6.532320 16.377300 -0.000001 -0.000001 -1.257960 -5.895040 2.042940 6.456720 -0.000001 -0.000000 -6.409380 -2.531040 3.532440 12.994200 -0.242716 4.980390 -88.570900 -5.108280 -74.347100 5.348090 -0.000007 -0.000001 -61.851100 6.405050 -37.785200 24.328600 0.000019 0.000005 4.301840 -0.223196 -92.965700 22.291600 -0.000001 0.000005 11.509700 5.496550 -6.396290 12.994500 -0.242716 -4.980390 89.396400 1.872040 -72.124500 -5.348130 -0.000001 -0.000004 -63.881100 24.687900 26.127600 -24.328900 0.000322 -0.000009 -7.765090 -9.373400 -39.933600 -22.291500 -0.000108 -0.000004 6.280680 5.592980 -10.931200 -2.192480 -6.469440 -0.000000 -170.169000 -4.185540 -4.184800 39.081100 -0.000007 -0.000012 -0.023863 0.038569 31.746600 40.985400 -0.000006 -0.000013 -1.193640 6.238120 -71.630500 11.754300 -0.000000 0.000003 -0.138391 -0.531294 -38.977700 -2.192510 6.469440 -0.000001 -171.728000 1.298480 113.851000 -39.081100 -0.002282 -0.040193 0.117106 0.009527 94.829400 -40.985400 0.000008 0.000006 6.165930 -6.894410 -66.074700 -11.754300 -0.000006 -0.000006 -0.017033 -0.150263 -22.707200
0.000000 0.000000 0.000000 0.000000 0.000000 -0.000000 9.839110 88.109200 387.832000 -86.639800 -11.229300 160.947000 15.735700 0.000005 -0.000001 50.223000 82.841000 -46.685100 8.984550 -0.406207 -0.000000 3.575000 -9.279200 7.370870 16.377300 -0.000001 -0.000001 -0.865063 -5.248770 2.430550 6.456720 -0.000001 -0.000000 -6.286020 -1.244070 2.772920 12.994200 -0.242716 4.980390 -88.583100 -5.064420 -74.347600 5.348090 -0.000007 -0.000001 -62.294900 9.218430 -33.169200 24.328600 0.000019 0.000005 6.410380 0.116941 -88.960200 22.291600 -0.000001 0.000005 12.572500 5.471330 -5.420310 12.994500 -0.242716 -4.980390 89.665700 1.055510 -72.426300 -5.348130 -0.000001 -0.000004 -64.834300 23.507600 26.300900 -24.328900 0.000322 -0.000009 -8.865720 -9.792620 -42.520300 -22.291500 -0.000108 -0.000004 7.301970 5.597660 -11.202700 -2.192480 -6.469440 -0.000000 -168.244000 -9.466960 -1.257610 39.081100 -0.000007 -0.000012 0.028997 -0.058308 26.441200 40.985400 -0.000006 -0.000013 -2.985100 9.679320 -47.341300 11.754300 -0.000000 0.000003 -0.166916 -0.587106 -41.519100 -2.192510 6.469440 -0.000001 -174.447000 1.499650 116.671000 -39.081100 -0.002282 -0.040193 0.166691 -0.047389 73.849200 -40.985400 0.000008 0.000006 5.443620 -4.931610 -69.008100 -11.754300 -0.000006 -0.000006 -0.018677 -0.159850 -23.101600
0.000000 0.000000 0.000000 0.000000 0.000000 -0.000000 9.688230 89.640900 377.939000 -88.601600 -10.100300 162.064000 15.735700 0.000005 -0.000001 49.830900 82.255800 -46.633800 8.984550 -0.406207 -0.000000 4.415090 -10.068400 6.789300 16.377300 -0.000001 -0.000001 -0.520989 -4.591060 2.765550 6.456720 -0.000001 -0.000000 -7.281230 -0.328366 1.956860 12.994200 -0.242716 4.980390 -88.829600 -4.171890 -74.312900 5.348090 -0.000007 -0.000001 -62.791700 12.764300 -27.762800 24.328600 0.000019 0.000005 8.031710 0.901240 -83.639900 22.291600 -0.000001 0.000005 12.218600 5.464050 -5.149760 12.994500 -0.242716 -4.980390 89.406800 1.926400 -72.881200 -5.348130 -0.000001 -0.000004 -64.356400 23.643600 23.743600 -24.328900 0.000322 -0.000009 -8.360610 -8.799680 -43.847200 -22.291500 -0.000108 -0.000004 9.402830 5.609900 -11.952000 -2.192480 -6.469440 -0.000000 -168.440000 -11.038800 3.042380 39.081100 -0.000007 -0.000012 0.063969 -0.127697 26.608300 40.985400 -0.000006 -0.000013 -3.269460 7.091430 -37.649300 11.754300 -0.000000 0.000003 -0.003886 -0.050253 -18.620900 -2.192510 6.469440 -0.000001 -177.624000 4.087270 124.235000 -39.081100 -0.002282 -0.040193 0.099785 -0.077468 51.255700 -40.985400 0.000008 0.000006 4.274940 -3.163240 -72.405400 -11.754300 -0.000006 -0.000006 -0.018839 -0.160769 -23.139400
0.000000 0.000000 0.000000 0.000000 0.000000 -0.000000 9.387850 89.856200 367.798000 -90.408300 -9.504130 163.821000 15.735700 0.000005 -0.000001 49.250700 81.510000 -46.310900 8.984550 -0.406207 -0.000000 5.472500 -11.118400 6.420670 16.377300 -0.000001 -0.000001 -0.471489 -4.054830 2.134260 6.456720 -0.000001 -0.000000 -7.468890 0.759924 1.405420 12.994200 -0.242716 4.980390 -89.255400 -2.654430 -74.324400 5.348090 -0.000007 -0.000001 -63.040400 16.715100 -20.966000 24.328600 0.000019 0.000005 8.642540 1.996640 -77.089600 22.291600 -0.000001 0.000005 11.820100 5.469010 -5.333370 12.994500 -0.242716 -4.980390 88.908500 3.774730 -73.858600 -5.348130 -0.000001 -0.000004 -62.567200 24.323600 19.317300 -24.328900 0.000322 -0.000009 -8.328840 -8.361880 -45.187100 -22.291500 -0.000108 -0.000004 11.189400 5.619400 -12.578400 -2.192480 -6.469440 -0.000000 -171.256000 -5.762010 5.690960 39.081100 -0.000007 -0.000012 0.067361 -0.095928 35.076200 40.985400 -0.000006 -0.000013 -0.113190 -5.556070 -43.127000 11.754300 -0.000000 0.000003 -0.005923 -0.070144 -19.431500 -2.192510 6.469440 -0.000001 -177.489000 10.437900 131.607000 -39.081100 -0.002282 -0.040193 0.014617 -0.017216 33.331000 -40.985400 0.000008 0.000006 1.279980 0.225218 -72.110900 -11.754300 -0.000006 -0.000006 -0.019505 -0.164529 -23.294200
0.000000 0.000000 0.000000 0.000000 0.000000 -0.000000 9.164010 89.060300 357.455000 -92.110000 -7.276050 166.178000 15.735700 0.000005 -0.000001 54.482700 81.178100 -52.064600 8.984550 -0.406207 -0.000000 6.901040 -10.235400 5.459950 16.377300 -0.000001 -0.000001 -0.427733 -3.742680 1.428170 6.456720 -0.000001 -0.000000 -8.299120 1.027080 0.549147 12.994200 -0.242716 4.980390 -89.772900 -0.816405 -74.455900 5.348090 -0.000007 -0.000001 -63.179400 21.200800 -15.089300 24.328600 0.000019 0.000005 8.745500 3.632850 -67.613900 22.291600 -0.000001 0.000005 10.462200 5.485750 -5.970220 12.994500 -0.242716 -4.980390 88.183300 6.609470 -74.593800 -5.348130 -0.000001 -0.000004 -59.391900 23.566100 12.922400 -24.328900 0.000322 -0.000009 -9.176770 -8.958690 -46.048400 -22.291500 -0.000108 -0.000004 13.012100 5.630280 -13.357100 -2.192480 -6.469440 -0.000000 -175.540000 -3.838510 6.353700 39.081100 -0.000007 -0.000012 0.148060 -0.128488 49.047600 40.985400 -0.000006 -0.000013 4.357580 -13.137100 -41.886700 11.754300 -0.000000 0.000003 -0.004748 -0.059009 -18.977600 -2.192510 6.469440 -0.000001 -176.097000 15.985300 134.430000 -39.081100 -0.002282 -0.040193 0.166606 -0.254431 32.695100 -40.985400 0.000008 0.000006 1.988970 1.342770 -72.599500 -11.754300 -0.000006 -0.000006 -0.018407 -0.158300 -23.037800
0.000000 0.000000 0.000000 0.000000 0.000000 -0.000000 9.255940 87.281600 347.553000 -91.145100 -3.001530 168.125000 15.735700 0.000005 -0.000001 66.481000 81.128500 -63.985900 8.984550 -0.406207 -0.000000 8.710690 -7.025510 5.526460 16.377300 -0.000001 -0.000001 -0.964460 -3.058110 1.058030 6.456720 -0.000001 -0.000000 -9.622800 0.848205 -0.473992 12.994200 -0.242716 4.980390 -90.247400 0.869902 -74.121900 5.348090 -0.000007 -0.000001 -62.479200 26.307400 -11.231200 24.328600 0.000019 0.000005 8.909490 6.117030 -55.794500 22.291600 -0.000001 0.000005 7.682920 5.501440 -6.591420 12.994500 -0.242716 -4.980390 87.771100 9.185080 -76.296700 -5.348130 -0.000001 -0.000004 -55.414600 20.477600 4.436720 -24.328900 0.000322 -0.000009 -10.005000 -9.299860 -47.506300 -22.291500 -0.000108 -0.000004 14.184300 5.642300 -14.319700 -2.192480 -6.469440 -0.000000 -177.692000 -6.075910 0.754308 39.081100 -0.000007 -0.000012 0.265212 -0.093527 70.573900 40.985400 -0.000006 -0.000013 4.227240 -12.376500 -36.121700 11.754300 -0.000000 0.000003 -0.005101 -0.062446 -19.117600 -2.192510 6.469440 -0.000001 -175.348000 15.910100 134.240000 -39.081100 -0.002282 -0.040193 0.163498 -0.169633 43.367100 -40.985400 0.000008 0.000006 3.316460 1.675620 -64.719500 -11.754300 -0.000006 -0.000006 -0.025123 -0.194173 -24.517300
0.000000 0.000000 0.000000 0.000000 0.000000 -0.000000 9.959890 84.276300 338.431000 -87.431700 1.426260 170.594000 15.735700 0.000005 -0.000001 79.550300 80.625500 -76.188800 8.984550 -0.406207 -0.000000 10.791100 -3.287420 7.031490 16.377300 -0.000001 -0.000001 -1.960920 -1.937940 0.838868 6.456720 -0.000001 -0.000000 -9.786250 0.939354 -1.634780 12.994200 -0.242716 4.980390 -90.759900 2.582070 -73.596000 5.348090 -0.000007 -0.000001 -62.098200 30.777800 -5.721470 24.328600 0.000019 0.000005 8.555870 9.100320 -43.567900 22.291600 -0.000001 0.000005 3.991540 5.508940 -6.897620 12.994500 -0.242716 -4.980390 87.686600 11.206400 -78.257300 -5.348130 -0.000001 -0.000004 -50.221600 17.520000 -5.781400 -24.328900 0.000322 -0.000009 -10.609100 -8.901340 -50.437000 -22.291500 -0.000108 -0.000004 16.888000 5.656890 -15.712200 -2.192480 -6.469440 -0.000000 -176.210000 -9.592370 -8.892480 39.081100 -0.000007 -0.000012 0.465065 0.044066 95.411400 40.985400 -0.000006 -0.000013 0.515968 -8.948910 -32.358800 11.754300 -0.000000 0.000003 -0.004601 -0.057558 -18.918400 -2.192510 6.469440 -0.000001 -175.040000 8.684770 137.300000 -39.081100 -0.002282 -0.040193 -0.294723 0.206644 55.256800 -40.985400 0.000008 0.000006 1.387730 -1.539840 -72.521200 -11.754300 -0.000006 -0.000006 -0.016552 -0.147380 -22.588700
0.000000 0.000000 0.000000 0.000000 0.000000 -0.000000 10.556100 81.342500 330.226000 -84.868500 6.178560 171.999000 15.735700 0.000005 -0.000001 88.300800 79.759800 -84.599100 8.984550 -0.406207 -0.000000 12.730900 -0.440976 7.452260 16.377300 -0.000001 -0.000001 -3.455680 -0.324323 0.975129 6.456720 -0.000001 -0.000000 -10.375700 2.016200 -2.776520 12.994200 -0.242716 4.980390 -91.011900 3.187310 -72.376400 5.348090 -0.000007 -0.000001 -64.231500 29.572100 2.159640 24.328600 0.000019 0.000005 7.758570 12.381300 -32.433100 22.291600 -0.000001 0.000005 1.929900 5.502530 -6.635360 12.994500 -0.242716 -4.980390 88.098100 11.394300 -80.458500 -5.348130 -0.000001 -0.000004 -47.106600 13.084700 -18.680700 -24.328900 0.000322 -0.000009 -9.894290 -6.815770 -55.765800 -22.291500 -0.000108 -0.000004 21.087200 5.656590 -15.680800 -2.192480 -6.469440 -0.000000 -177.166000 -12.703000 -23.579800 39.081100 -0.000007 -0.000012 0.320992 0.165273 117.241000 40.985400 -0.000006 -0.000013 2.156260 -4.635710 -30.234900 11.754300 -0.000000 0.000003 -0.005054 -0.061999 -19.099400 -2.192510 6.469440 -0.000001 -174.237000 2.993720 141.349000 -39.081100 -0.002282 -0.040193 -0.854652 0.425824 63.602200 -40.985400 0.000008 0.000006 0.256213 -2.527980 -82.779200 -11.754300 -0.000006 -0.000006 -0.005254 -0.063899 -19.173200
